<mxfile host="app.diagrams.net" modified="2022-02-13T07:25:21.764Z" agent="5.0 (Windows NT 10.0; Win64; x64) AppleWebKit/537.36 (KHTML, like Gecko) Chrome/98.0.4758.82 Safari/537.36" etag="vOxheahz2AIwlHrxDOeE" version="16.5.6" type="github">
  <diagram name="Page-1" id="efa7a0a1-bf9b-a30e-e6df-94a7791c09e9">
    <mxGraphModel dx="3421" dy="1368" grid="1" gridSize="10" guides="1" tooltips="1" connect="1" arrows="1" fold="1" page="1" pageScale="1" pageWidth="826" pageHeight="1169" background="none" math="0" shadow="0">
      <root>
        <mxCell id="0" />
        <mxCell id="1" parent="0" />
        <mxCell id="25" value="&lt;p style=&quot;text-align: center ; margin: 4px 0px 0px ; text-decoration: underline&quot;&gt;&lt;b&gt;使用者&lt;/b&gt;&lt;/p&gt;&lt;p style=&quot;text-align: center ; margin: 4px 0px 0px ; text-decoration: underline&quot;&gt;&lt;strong&gt;Users&lt;/strong&gt;&lt;/p&gt;&lt;hr&gt;&lt;p style=&quot;margin: 0px ; margin-left: 8px&quot;&gt;&lt;u&gt;userId&lt;/u&gt;&lt;/p&gt;&lt;p style=&quot;margin: 0px ; margin-left: 8px&quot;&gt;userName&lt;/p&gt;&lt;p style=&quot;margin: 0px ; margin-left: 8px&quot;&gt;userImg&lt;/p&gt;&lt;p style=&quot;margin: 0px ; margin-left: 8px&quot;&gt;userPhone&lt;br&gt;&lt;/p&gt;&lt;p style=&quot;margin: 0px ; margin-left: 8px&quot;&gt;userEmail&lt;br&gt;&lt;/p&gt;&lt;p style=&quot;margin: 0px ; margin-left: 8px&quot;&gt;userExpenience&lt;br&gt;&lt;/p&gt;&lt;p style=&quot;margin: 0px ; margin-left: 8px&quot;&gt;account&lt;/p&gt;&lt;p style=&quot;margin: 0px ; margin-left: 8px&quot;&gt;password&lt;/p&gt;" style="verticalAlign=top;align=left;overflow=fill;fontSize=12;fontFamily=Times New Roman;html=1;strokeColor=#666666;shadow=1;fillColor=#f5f5f5;gradientColor=#b3b3b3;" parent="1" vertex="1">
          <mxGeometry x="-740" y="30" width="160" height="178.36" as="geometry" />
        </mxCell>
        <mxCell id="5XHWenP0DDk_uuIquULA-114" value="&lt;p style=&quot;text-align: center ; margin: 4px 0px 0px ; text-decoration: underline&quot;&gt;&lt;b&gt;能力表&lt;/b&gt;&lt;/p&gt;&lt;p style=&quot;text-align: center ; margin: 4px 0px 0px ; text-decoration: underline&quot;&gt;&lt;strong&gt;UserStats&lt;/strong&gt;&lt;/p&gt;&lt;hr&gt;&lt;p style=&quot;margin: 0px ; margin-left: 8px&quot;&gt;&lt;u&gt;userId&lt;/u&gt;&lt;/p&gt;&lt;p style=&quot;margin: 0px ; margin-left: 8px&quot;&gt;leadership&lt;/p&gt;&lt;p style=&quot;margin: 0px ; margin-left: 8px&quot;&gt;teamwork&lt;/p&gt;&lt;p style=&quot;margin: 0px ; margin-left: 8px&quot;&gt;strength&lt;/p&gt;&lt;p style=&quot;margin: 0px ; margin-left: 8px&quot;&gt;heal&lt;/p&gt;&lt;p style=&quot;margin: 0px ; margin-left: 8px&quot;&gt;surriral&lt;/p&gt;&lt;p style=&quot;margin: 0px ; margin-left: 8px&quot;&gt;direction&lt;/p&gt;&lt;p style=&quot;margin: 0px ; margin-left: 8px&quot;&gt;commentCaunt&lt;/p&gt;" style="verticalAlign=top;align=left;overflow=fill;fontSize=12;fontFamily=Times New Roman;html=1;strokeColor=#666666;shadow=1;fillColor=#f5f5f5;gradientColor=#b3b3b3;" vertex="1" parent="1">
          <mxGeometry x="-740" y="270" width="160" height="178.36" as="geometry" />
        </mxCell>
        <mxCell id="5XHWenP0DDk_uuIquULA-115" value="" style="endArrow=classic;html=1;rounded=0;fontFamily=Times New Roman;entryX=-0.008;entryY=0.328;entryDx=0;entryDy=0;entryPerimeter=0;" edge="1" parent="1" target="5XHWenP0DDk_uuIquULA-114">
          <mxGeometry width="50" height="50" relative="1" as="geometry">
            <mxPoint x="-741" y="90" as="sourcePoint" />
            <mxPoint x="-560" y="170" as="targetPoint" />
            <Array as="points">
              <mxPoint x="-780" y="90" />
              <mxPoint x="-780" y="329" />
            </Array>
          </mxGeometry>
        </mxCell>
        <mxCell id="5XHWenP0DDk_uuIquULA-118" value="&lt;p style=&quot;text-align: center ; margin: 4px 0px 0px ; text-decoration: underline&quot;&gt;&lt;b&gt;行程管理聊天室&lt;/b&gt;&lt;/p&gt;&lt;p style=&quot;text-align: center ; margin: 4px 0px 0px ; text-decoration: underline&quot;&gt;&lt;strong&gt;TripMessageBoards&lt;/strong&gt;&lt;/p&gt;&lt;hr&gt;&lt;p style=&quot;margin: 0px ; margin-left: 8px&quot;&gt;&lt;u&gt;tripId&lt;/u&gt;&lt;/p&gt;&lt;p style=&quot;margin: 0px ; margin-left: 8px&quot;&gt;userId&lt;/p&gt;&lt;p style=&quot;margin: 0px ; margin-left: 8px&quot;&gt;tripMeaaageTime&lt;/p&gt;&lt;p style=&quot;margin: 0px ; margin-left: 8px&quot;&gt;tripMessageText&lt;/p&gt;&lt;p style=&quot;margin: 0px ; margin-left: 8px&quot;&gt;tripMessageImg&lt;/p&gt;" style="verticalAlign=top;align=left;overflow=fill;fontSize=12;fontFamily=Times New Roman;html=1;strokeColor=#666666;shadow=1;fillColor=#f5f5f5;gradientColor=#b3b3b3;" vertex="1" parent="1">
          <mxGeometry x="-740" y="510" width="160" height="140" as="geometry" />
        </mxCell>
        <mxCell id="5XHWenP0DDk_uuIquULA-129" value="" style="endArrow=classic;html=1;rounded=0;fontFamily=Times New Roman;entryX=-0.004;entryY=0.527;entryDx=0;entryDy=0;entryPerimeter=0;" edge="1" parent="1">
          <mxGeometry width="50" height="50" relative="1" as="geometry">
            <mxPoint x="-780" y="329" as="sourcePoint" />
            <mxPoint x="-741.64" y="582.7800000000001" as="targetPoint" />
            <Array as="points">
              <mxPoint x="-780" y="583" />
            </Array>
          </mxGeometry>
        </mxCell>
      </root>
    </mxGraphModel>
  </diagram>
</mxfile>
